PathFileType	4	(X/Y/Z)	C:/Users/beibeiliu/ov580/test_trc/User2\sequence.15_training_dense_right.trc
DataRate	CameraRate	NumFrames	NumMarkers	Units	OrigDataRate	OrigDataStartFrame	OrigNumFrames
120	120	24	19	mm	120	35	273
Frame#	Time	ThumbCMC			ThumbMCP			ThumbIP			ThumbTip			IndexMCP			IndexPIP			IndexTip			MiddleMCP			MiddlePIP			MiddleTip			RingMCP			RingPIP			RingTip			PinkyMCP			PinkyPIP			PinkyTip			BackHand1			BackHand2			BackHand3	
		X0	Y0	Z0	X1	Y1	Z1	X2	Y2	Z2	X3	Y3	Z3	X4	Y4	Z4	X5	Y5	Z5	X6	Y6	Z6	X7	Y7	Z7	X8	Y8	Z8	X9	Y9	Z9	X10	Y10	Z10	X11	Y11	Z11	X12	Y12	Z12	X13	Y13	Z13	X14	Y14	Z14	X15	Y15	Z15	X16	Y16	Z16	X17	Y17	Z17	X18	Y18	Z18	
34	0.283333	39.0866	40.4371	50.3853	17.9498	44.6492	21.9447	7.16017	39.3785	-5.95819	-2.94319	36.0792	-34.1695	40.4096	27.0903	-27.4631	8.30772	11.7494	-28.2199	5.13987	3.45588	3.67979	46.545	8.29571	-33.2894	17.5313	-8.53125	-26.9249	21.9508	-1.22961	14.6108	57.7926	-12.7283	-31.0472	30.9836	-24.9011	-30.2927	27.5899	-13.1578	7.48813	79.7314	-29.177	-15.0623	76.0553	-41.0453	-38.9847	72.0719	-46.2688	-63.3148	90.2497	-0.224059	27.3437	94.7139	3.91986	59.2489	76.6996	35.0904	39.8973	
35	0.291667	48.0435	44.5843	49.8173	28.4323	49.5432	16.2178	14.0089	47.8695	-12.953	6.0739	38.5448	-34.9772	42.0995	27.9387	-32.6223	15.2091	14.211	-30.7701	4.83764	13.3544	3.08889	45.871	1.37186	-34.2251	13.2123	-5.84671	-23.052	22.0179	1.99433	15.9277	53.0717	-21.6275	-27.6923	20.2813	-20.456	-24.7632	25.0488	-10.7091	11.7863	70.9019	-37.6736	-14.6409	63.1382	-46.9817	-33.5223	54.5997	-56.549	-58.884	89.5727	-4.8448	26.0308	94.9349	-2.99216	60.9801	85.3801	27.3886	37.9139	
36	0.3	59.5407	47.0112	41.6341	40.1498	53.1374	15.6559	26.4009	50.5626	-20.9857	14.3131	45.6241	-39.9623	49.1042	21.0443	-33.4798	16.5186	21.7823	-32.5415	9.87464	20.3741	1.79607	44.6906	1.44965	-33.3186	12.5105	1.10607	-22.1937	23.7537	15.5322	16.1093	45.4019	-22.725	-25.3203	13.9074	-15.5556	-20.0193	23.5307	-1.85774	11.7569	58.5842	-43.9342	-6.08654	47.1118	-55.2076	-34.4674	38.8132	-57.3474	-52.4503	83.7636	-13.6325	27.3318	92.484	-8.66818	56.0655	90.5405	21.4759	38.3285	
37	0.308333	69.9899	46.5363	41.2241	53.7856	57.4439	9.88647	38.4683	53.9342	-26.352	25.0827	49.1607	-45.1725	53.5955	18.8352	-33.9512	21.846	23.7419	-34.7999	16.1988	35.4721	0.172154	42.401	-2.67343	-32.8541	10.8845	7.81992	-20.8105	28.3213	19.5148	14.9576	37.186	-23.4627	-23.9332	8.60456	-6.1751	-18.5458	21.8689	7.8616	9.66236	42.6626	-45.4347	-5.20348	28.5146	-52.0597	-30.0726	17.1402	-53.1106	-51.9326	78.9787	-21.6342	29.3926	87.4007	-18.7594	57.3125	92.8403	12.1442	30.8446	
38	0.316667	82.7588	44.2225	36.5762	68.7603	54.5591	4.74138	52.8459	52.6811	-29.9886	38.3019	52.8945	-47.2268	53.2805	16.0223	-38.429	26.3921	32.1214	-36.6507	27.7849	41.6086	-1.69833	38.9672	-4.59202	-31.1459	13.8266	19.2243	-24.6509	34.1493	30.1791	10.7131	27.4575	-17.0308	-24.9022	5.06116	1.29628	-20.6419	23.971	16.71	8.36994	29.6923	-38.2584	-1.23609	13.4058	-42.8033	-21.1984	1.95862	-42.4403	-44.1141	69.6639	-23.6023	30.2713	81.9375	-19.3723	56.9906	94.7233	2.49569	30.1579	
39	0.325	95.1096	39.7251	30.745	80.4795	45.3696	-2.69299	64.6466	45.4824	-32.1846	51.934	50.3084	-51.1802	61.4319	12.4524	-37.5967	35.824	35.1714	-42.8945	38.7581	48.8007	-7.81509	38.4268	0.35539	-35.196	17.6671	28.5324	-24.5337	40.6586	32.0038	8.66266	19.7305	-12.74	-23.6	7.10843	14.2765	-21.7285	29.0584	23.1058	7.21615	20.8852	-28.2894	-2.11396	1.6781	-30.284	-22.2116	-11.7925	-29.1336	-44.0083	60.1403	-26.8161	31.3112	73.6739	-22.4071	62.0137	94.449	-5.07317	28.6598	
40	0.333333	101.994	28.5973	26.7533	90.9722	38.8112	-2.66216	77.6493	42.2814	-34.9256	64.5515	43.9298	-55.4698	62.9447	8.72428	-40.0756	41.7882	34.844	-43.2093	49.9967	48.423	-7.40888	35.9806	0.573121	-32.374	25.146	33.2898	-30.0443	47.2516	36.5339	5.87449	18.488	-7.2691	-19.3292	10.4557	23.0284	-23.9079	30.0877	30.7555	5.53435	10.2329	-19.0615	1.17429	-6.09517	-15.7912	-20.6035	-18.2305	-13.9303	-40.9592	54.9612	-23.7609	31.09	68.6626	-23.8441	61.8114	88.3913	-11.5012	31.3617	
41	0.341667	104.711	20.4138	28.0523	99.8086	32.6086	-2.88518	83.722	33.7997	-35.6637	73.5757	39.349	-59.8899	65.3578	6.55617	-41.4267	49.7408	36.6742	-44.5823	58.9031	49.5876	-13.1278	37.7815	5.94422	-35.7026	30.2848	38.7276	-27.8403	52.8657	34.8362	7.19563	17.0458	0.657879	-22.9398	15.4322	29.0781	-27.2717	37.1749	32.5179	6.16806	8.8417	-9.39978	2.77722	-4.07911	-2.85077	-24.9384	-16.8181	-0.320025	-41.199	50.0674	-23.418	34.5494	62.0755	-21.1698	60.3424	89.0651	-15.7378	31.3839	
42	0.35	105.675	15.2075	27.9156	102.012	27.4714	-1.89233	89.9661	30.6282	-37.8374	81.0074	35.7904	-61.8997	62.7946	6.24678	-41.7202	53.7513	33.9219	-45.1835	62.9973	46.5147	-12.8811	37.6411	7.08568	-34.758	34.4609	39.4166	-30.0093	57.288	36.4507	6.02129	23.345	3.12399	-23.7137	20.8117	33.7199	-26.6155	42.5996	36.4995	0.871206	9.16577	-5.47733	0.741964	-2.14467	0.312804	-21.8023	-12.1423	4.76366	-45.7809	48.9566	-22.2354	34.336	59.4916	-21.7996	60.986	86.2692	-18.7584	29.0951	
43	0.358333	109.918	14.1625	27.4964	102.399	24.9603	-1.44367	93.1326	29.8405	-34.8277	84.423	35.1852	-56.9389	66.4975	2.16748	-38.4928	59.2043	37.64	-44.5496	67.1631	46.5565	-13.2723	43.8254	4.20045	-32.0188	42.5017	40.4738	-31.0956	60.4398	37.382	3.82096	24.9366	1.38883	-23.6307	25.5723	34.6396	-26.3025	41.5473	35.2329	4.11801	11.1202	-6.02847	-2.80847	3.94221	2.19776	-26.1779	-6.59385	7.68137	-47.8851	50.4179	-22.5832	33.8009	61.1547	-23.9871	60.7238	85.4424	-20.1465	34.2268	
44	0.366667	106.314	13.2024	27.5872	104.156	25.046	-0.0582724	94.7154	30.6385	-33.5073	86.2679	36.3324	-57.5337	69.0776	4.53937	-43.0133	61.3925	34.6277	-46.0769	65.6167	44.1533	-9.61637	46.2587	5.11071	-34.7444	41.1488	39.1161	-28.4043	62.0661	34.7847	5.54268	25.5016	2.5734	-26.3836	27.2336	33.403	-26.4214	43.4963	32.5501	3.97849	18.1016	-6.4172	-4.03355	4.42236	1.04385	-28.4044	-0.12291	7.15569	-50.5547	50.3922	-26.3488	29.7885	63.6772	-23.582	63.8352	90.1644	-20.9065	33.5599	
45	0.375	109.07	14.8362	27.9687	105.405	25.867	-3.65769	97.3394	31.2008	-37.31	88.2992	37.0789	-60.931	71.4162	0.840125	-39.0267	62.8807	33.8605	-45.375	69.0018	44.3889	-9.46022	50.0943	1.82227	-35.2437	43.8645	35.9279	-32.7348	61.6644	33.6763	5.60839	31.6347	-3.2524	-23.7081	27.879	29.138	-26.4669	46.6057	30.2532	3.82246	17.7283	-12.5951	-5.20448	10.8219	-4.49497	-26.0417	-3.07826	-0.269264	-49.6027	57.8479	-26.1387	30.7164	66.5009	-27.4867	64.898	95.7808	-21.0749	29.4358	
46	0.383333	113.486	20.6582	26.1972	105.557	29.9961	-2.52898	95.3786	34.665	-39.4464	86.5617	40.1015	-56.5076	78.1837	4.33617	-41.1783	59.7736	31.7063	-44.4635	65.1132	42.6092	-7.53133	52.9095	-1.10314	-34.551	43.3246	33.4087	-30.8657	60.7658	32.4418	5.0679	36.4537	-8.29394	-25.0768	28.7381	23.5428	-27.083	47.6162	26.0011	3.59483	22.2713	-21.1368	-6.3024	9.88276	-13.5616	-30.8839	5.15364	-7.70065	-51.5049	59.4259	-29.4291	28.1556	72.7884	-29.4832	59.3191	98.778	-19.3731	30.6138	
47	0.391667	110.344	27.2431	31.058	103.91	39.3835	-3.26967	93.7045	43.2335	-36.1188	80.2871	42.5271	-56.9143	83.8189	7.08706	-41.3912	56.4627	29.2204	-44.2441	60.1295	44.1076	-12.2533	56.0244	-4.54847	-36.3872	40.8839	28.0509	-28.875	61.4546	30.9492	5.52121	43.2317	-15.4847	-26.4913	27.0191	14.4118	-25.3049	45.6847	20.627	2.82359	35.7629	-30.442	-8.56724	26.2116	-25.0386	-33.0279	16.9899	-22.2167	-54.8593	73.5561	-33.7266	29.0209	87.3114	-28.4903	60.1045	109.161	-12.4635	32.4693	
48	0.4	105.405	37.9612	31.298	94.5347	49.0662	0.816981	83.075	49.1375	-34.6143	72.4882	51.1094	-52.7991	82.8824	12.6256	-44.9338	58.8385	30.0138	-47.6177	49.6544	36.8527	-13.0125	64.9293	-6.06641	-38.6227	41.305	18.9421	-32.5058	55.8831	26.4722	5.03301	56.2932	-18.9311	-32.0757	32.6156	1.04154	-31.2167	46.9198	10.5486	5.92223	53.773	-38.627	-11.5242	41.399	-39.3601	-37.0899	35.6849	-33.0996	-59.8656	88.6017	-31.8059	27.3045	98.1155	-28.7528	55.7028	116.376	-2.59906	30.7955	
49	0.408333	93.3238	41.1756	34.8681	80.5645	50.0702	1.86555	69.3114	54.3933	-27.4582	60.0383	51.9606	-50.97	86.8306	20.5136	-40.2191	52.4496	25.9517	-42.4152	43.8928	28.6858	-8.10248	79.5512	0.209498	-38.9008	41.3936	7.37632	-31.0482	51.0777	16.258	4.25571	69.3777	-22.2355	-35.9323	42.8854	-7.43886	-35.6266	48.6386	1.72231	2.83826	78.2002	-37.2843	-17.2023	66.9336	-40.7408	-44.2961	62.2151	-35.915	-66.1689	105.136	-26.0038	21.3179	110.123	-19.7627	52.5805	120.008	9.98047	32.6291	
50	0.416667	77.8267	44.6717	38.7039	61.5983	51.2519	10.0281	53.1341	52.433	-20.9188	46.2794	52.008	-47.079	82.0769	34.2823	-38.9383	49.5245	25.4619	-42.7755	37.7571	17.4471	-10.6387	81.1117	9.75377	-42.2966	48.5013	4.61549	-36.2436	52.6147	2.90872	4.97786	86.2531	-14.665	-39.8175	55.5426	-14.2928	-40.3132	54.777	-9.68698	-0.938079	99.4049	-27.5824	-24.2001	92.9076	-24.9948	-50.5432	86.0867	-28.5677	-74.0441	117.619	-8.94958	16.7336	121.143	-9.08391	50.4372	114.803	23.0676	37.2076	
51	0.425	61.3814	37.2457	47.4272	49.2574	40.9327	13.8828	39.8138	42.6203	-16.0423	33.3306	44.5049	-41.7813	74.6494	40.1148	-32.1194	49.24	21.4285	-41.6282	36.145	6.32124	-10.0923	84.1751	19.6963	-37.4849	53.1664	0.569109	-38.6217	52.8299	-0.579828	4.25139	96.65	-1.41932	-40.5541	63.9059	-10.9073	-42.2709	63.3707	-14.3749	-5.34111	113.072	-9.40708	-28.2063	109.003	-11.2103	-52.0457	103.085	-5.19996	-80.0817	121.605	7.09292	17.5427	125.306	-0.259548	51.8536	105.482	35.3226	41.4595	
52	0.433333	52.5017	27.531	49.0587	35.7579	30.0663	18.1434	30.4621	32.6741	-14.6947	20.213	34.9173	-36.5544	60.9847	38.9284	-31.137	40.6633	14.8439	-39.1817	42.0641	-6.15809	-7.45087	77.8898	24.1695	-38.8111	53.916	-0.905499	-38.7785	58.6574	-8.99473	1.84519	93.3901	12.4216	-41.9538	71.6018	-8.26776	-45.4756	69.4273	-14.6762	-8.0418	115.622	6.27062	-26.8545	111.025	8.65908	-53.227	107.238	13.1133	-77.1593	119.982	18.5358	20.2082	119.795	11.8426	55.9371	94.2114	36.3242	44.0323	
53	0.441667	46.8112	18.7548	50.6208	27.7862	21.0477	20.7925	20.2762	23.5555	-10.699	12.9178	27.1488	-38.088	52.6788	38.8505	-26.425	41.1591	12.4172	-40.3039	43.3654	-10.6675	-12.4474	69.7268	28.1411	-35.2637	54.2817	-7.34962	-37.6435	59.8332	-12.8924	0.560539	90.9275	16.261	-42.7613	73.4467	-7.57638	-47.1896	68.2659	-11.6666	-8.55138	114.557	12.8336	-27.0035	111.123	13.723	-52.2244	104.148	22.6563	-73.8925	114.054	25.2573	23.7915	116.247	17.9846	55.1765	83.3945	39.6813	46.6768	
54	0.45	45.4607	12.9729	50.1506	27.3406	13.3047	22.444	17.0959	18.7315	-12.7249	9.14626	17.5129	-33.8092	46.3144	33.523	-29.8474	35.3602	3.91042	-38.3504	40.5105	-15.0653	-11.4082	64.8171	25.1099	-37.1903	51.9121	-9.65423	-37.1008	54.5308	-14.0743	-0.694632	83.8641	17.2426	-41.7037	72.5483	-9.51324	-47.2554	68.0836	-15.807	-11.5963	109.128	16.6441	-30.3276	104.159	17.4569	-54.8949	101.322	24.5501	-79.9472	105.728	27.7499	20.9993	113.379	18.4996	54.7616	77.4484	39.4627	44.2839	
55	0.458333	43.186	11.3272	48.0849	25.6815	12.1342	18.4378	13.3237	12.7404	-11.8326	8.55524	13.0154	-38.6768	41.2552	30.8276	-29.1292	35.0623	1.46033	-39.353	39.1026	-18.2405	-12.3477	62.9397	22.1042	-37.4961	50.4591	-11.1829	-39.1534	55.8027	-15.0494	2.12565	85.5644	14.6311	-40.6328	65.2088	-11.3505	-44.8365	69.1332	-19.555	-9.72274	106.413	14.4409	-27.8621	103.73	15.0795	-55.9926	96.3464	22.8964	-76.4747	104.712	27.7142	19.7689	109.544	18.06	54.3299	71.5978	37.6935	43.9465	
56	0.466667	39.5286	11.1832	47.0173	20.8664	8.09435	17.263	12.6251	9.01018	-14.9665	4.67082	6.64367	-38.7972	40.8635	25.4263	-31.6325	30.3515	-1.18275	-40.4644	35.5368	-22.6555	-9.70073	60.8658	17.8573	-38.1073	50.783	-15.5246	-40.5929	52.3318	-19.4988	0.108041	79.9106	11.1746	-39.9589	67.7694	-18.963	-45.9211	67.5373	-23.4583	-10.4527	102.291	11.9717	-28.266	102.334	10.6018	-54.8493	98.0349	13.7639	-79.4371	102.621	23.7591	20.7554	106.403	19.6721	53.1421	71.5976	35.3138	41.162	
57	0.475	34.9112	9.74488	47.4323	16.5212	6.11292	15.1833	6.32464	3.33829	-18.9714	2.78528	-2.38512	-36.8543	35.4968	20.612	-31.2113	28.8906	-11.2699	-39.8756	34.5586	-27.7101	-6.97085	59.4056	9.30159	-38.9791	45.796	-25.0678	-36.3093	50.8864	-24.6934	2.16114	79.8467	2.63854	-40.602	64.4667	-25.1698	-44.78	60.1149	-25.5403	-6.90324	103.191	6.52813	-31.0337	96.0074	5.54179	-53.5381	93.3633	8.29121	-81.6663	96.013	23.6728	20.1068	102.935	20.1187	49.1858	68.5203	34.2198	39.0351	
